<svg width="398" height="161" viewBox="0 0 398 161" fill="none" xmlns="http://www.w3.org/2000/svg">
<g clip-path="url(#clip0_2978_1329)">
<path d="M394.478 157.48L319.808 157.48L319.808 82.8448L394.478 82.8448L394.478 157.48ZM376.223 88.6326C375.914 88.605 375.588 88.5885 375.224 88.5885L339.056 88.5885C338.692 88.5885 338.366 88.605 338.057 88.6326C331.036 89.1402 325.543 95.0439 325.543 102.09L325.543 138.24C325.543 145.286 331.036 151.19 338.057 151.697C338.366 151.725 338.692 151.742 339.056 151.742L375.224 151.742C375.588 151.742 375.914 151.725 376.223 151.697C383.245 151.19 388.737 145.286 388.737 138.24L388.737 102.09C388.737 95.0439 383.245 89.1402 376.223 88.6326ZM376.14 133.357C376.14 136.386 373.778 138.924 370.758 139.134L370.72 139.134L370.681 139.14C370.587 139.151 370.477 139.156 370.339 139.156L343.942 139.156C343.804 139.156 343.693 139.156 343.599 139.14L343.561 139.14L343.522 139.134C340.503 138.924 338.14 136.386 338.14 133.357L338.14 106.973C338.14 103.944 340.503 101.406 343.522 101.196L343.561 101.196L343.599 101.19C343.693 101.179 343.804 101.174 343.942 101.174L370.339 101.174C370.477 101.174 370.587 101.174 370.681 101.19L370.72 101.19L370.758 101.196C373.778 101.406 376.14 103.944 376.14 106.973L376.14 133.357ZM396.824 159.83L396.824 80.5054L317.462 80.5054L317.462 159.83L396.824 159.83ZM327.9 102.09C327.9 96.1916 332.476 91.3693 338.267 90.9665C338.532 90.9389 338.797 90.9279 339.062 90.9279L375.224 90.9279C375.489 90.9279 375.754 90.9389 376.019 90.9665C381.81 91.3693 386.386 96.1861 386.386 102.09L386.386 138.24C386.386 144.133 381.815 148.961 376.019 149.364C375.754 149.391 375.489 149.402 375.224 149.402L339.056 149.402C338.791 149.402 338.526 149.391 338.261 149.364C332.471 148.961 327.895 144.133 327.895 138.24L327.895 102.09L327.9 102.09ZM378.492 133.357L378.492 106.973C378.492 102.669 375.152 99.1489 370.924 98.8565C370.731 98.8344 370.537 98.8289 370.344 98.8289L343.947 98.8289C343.754 98.8289 343.561 98.8344 343.367 98.8565C339.139 99.1489 335.799 102.669 335.799 106.973L335.799 133.357C335.799 137.655 339.139 141.181 343.367 141.474C343.561 141.496 343.754 141.501 343.947 141.501L370.344 141.501C370.537 141.501 370.731 141.496 370.924 141.474C375.152 141.181 378.492 137.655 378.492 133.357Z" fill="#F5F5F5"/>
<path d="M239.268 81.6753L314.629 81.6753L239.268 156.994L239.268 81.6753Z" fill="#F5F5F5"/>
<path d="M311.792 82.8449L240.439 154.164L240.439 82.8449L311.792 82.8449ZM317.461 80.5L238.098 80.5L238.098 159.825L317.461 80.5Z" fill="#F5F5F5"/>
<path d="M77.0172 157.48L30.284 157.48C14.8773 157.48 2.34668 144.955 2.34668 129.556L2.34669 82.8448L49.0799 82.8448C64.4866 82.8448 77.0172 95.3695 77.0172 110.769L77.0172 157.48ZM79.3633 159.83L79.3633 110.774C79.3633 94.0563 65.8059 80.5054 49.0799 80.5054L0.000640277 80.5054L0.000638133 129.561C0.000637402 146.279 13.558 159.83 30.284 159.83L79.3633 159.83Z" fill="#3472E5"/>
<path d="M159.907 120.165C159.907 98.9395 177.18 81.6753 198.416 81.6753C219.651 81.6753 236.924 98.9395 236.924 120.165C236.924 141.391 219.651 158.655 198.416 158.655C177.18 158.655 159.907 141.391 159.907 120.165Z" fill="#3472E5"/>
<path d="M235.748 120.165C235.748 140.74 219 157.485 198.41 157.485C177.82 157.485 161.072 140.745 161.072 120.165C161.072 99.585 177.82 82.8449 198.41 82.8449C219 82.8449 235.748 99.585 235.748 120.165ZM238.094 120.165C238.094 98.2608 220.325 80.5 198.41 80.5C176.495 80.5 158.726 98.2608 158.726 120.165C158.726 142.07 176.495 159.83 198.41 159.83C220.325 159.83 238.094 142.07 238.094 120.165Z" fill="#3472E5"/>
<path d="M156.384 157.48L81.747 157.48C82.3322 137.799 90.2811 119.376 104.269 105.389C118.257 91.4024 136.689 83.4628 156.384 82.8779L156.384 157.48ZM158.73 159.83L158.73 80.5054C114.901 80.5054 79.3679 116.021 79.3679 159.83L158.73 159.83Z" fill="#F5F5F5"/>
<path d="M235.748 78.1552L161.077 78.1552L161.077 3.52024L235.748 3.52024L235.748 78.1552ZM217.493 9.30255C217.184 9.27497 216.858 9.25842 216.494 9.25842L180.326 9.25841C179.967 9.25841 179.636 9.27497 179.327 9.30255C172.305 9.81016 166.813 15.7139 166.813 22.7597L166.813 58.9102C166.813 65.956 172.305 71.8597 179.327 72.3673C179.636 72.3949 179.961 72.4115 180.326 72.4115L216.494 72.4115C216.858 72.4115 217.184 72.3949 217.493 72.3673C224.514 71.8597 230.007 65.956 230.007 58.9102L230.007 22.7652C230.007 15.7194 224.514 9.81568 217.493 9.30807M217.41 54.0272C217.41 57.0563 215.047 59.5944 212.028 59.804L211.989 59.804L211.95 59.8095C211.857 59.8206 211.746 59.8261 211.608 59.8261L185.211 59.8261C185.073 59.8261 184.963 59.8261 184.869 59.8095L184.83 59.8095L184.792 59.804C181.772 59.5944 179.409 57.0563 179.409 54.0272L179.409 27.6426C179.409 24.6136 181.772 22.0755 184.792 21.8659L184.83 21.8659L184.869 21.8603C184.963 21.8493 185.073 21.8438 185.206 21.8438L211.603 21.8438C211.741 21.8438 211.851 21.8438 211.939 21.8603L211.978 21.8603L212.017 21.8659C215.036 22.0755 217.399 24.6136 217.399 27.6426L217.399 54.0272M238.094 80.5001L238.094 1.17531L158.731 1.17531L158.731 80.5001L238.094 80.5001ZM169.17 22.7652C169.17 16.867 173.746 12.0447 179.536 11.642C179.801 11.6144 180.066 11.6033 180.331 11.6033L216.499 11.6033C216.764 11.6033 217.029 11.6144 217.294 11.642C223.085 12.0447 227.661 16.8615 227.661 22.7652L227.661 58.9157C227.661 64.8084 223.085 69.6362 217.294 70.039C217.029 70.0665 216.764 70.0776 216.499 70.0776L180.331 70.0776C180.066 70.0776 179.801 70.0665 179.536 70.039C173.746 69.6362 169.17 64.8084 169.17 58.9157L169.17 22.7652ZM219.761 54.0272L219.761 27.6427C219.761 23.339 216.422 19.8189 212.193 19.5264C212 19.5044 211.807 19.4989 211.614 19.4989L185.217 19.4989C185.023 19.4989 184.83 19.5044 184.637 19.5264C180.409 19.8189 177.069 23.339 177.069 27.6426L177.069 54.0272C177.069 58.3253 180.409 61.851 184.637 62.1434C184.83 62.1655 185.023 62.171 185.217 62.171L211.614 62.171C211.807 62.171 212 62.1655 212.193 62.1434C216.422 61.851 219.761 58.3253 219.761 54.0272Z" fill="#F5F5F5"/>
<path d="M395.654 79.3251L395.654 2.34523L318.638 2.34523L318.638 79.3251L395.654 79.3251Z" fill="#3472E5"/>
<path d="M394.478 78.1552L319.808 78.1552L319.808 3.52024L394.478 3.52024L394.478 78.1552ZM396.824 80.5001L396.824 1.17531L317.462 1.17531L317.462 80.5001L396.824 80.5001Z" fill="#3472E5"/>
<path d="M1.17677 40.8352C1.17677 19.6094 18.4492 2.34523 39.6851 2.34523C60.9209 2.34523 78.1934 19.6094 78.1934 40.8352C78.1934 62.0609 60.9209 79.3251 39.6851 79.3251C18.4492 79.3251 1.17677 62.0609 1.17677 40.8352Z" fill="#3472E5"/>
<path d="M77.0172 40.8351C77.0172 61.4098 60.2692 78.1553 39.6792 78.1553C19.0892 78.1553 2.34117 61.4153 2.34117 40.8351C2.34117 20.2549 19.0892 3.51486 39.6792 3.51487C60.2692 3.51487 77.0172 20.2549 77.0172 40.8351ZM79.3633 40.8351C79.3633 18.9307 61.594 1.16994 39.6792 1.16994C17.7644 1.16994 -0.00488418 18.9307 -0.00488514 40.8351C-0.0048861 62.7395 17.7644 80.5002 39.6792 80.5002C61.594 80.5002 79.3633 62.7395 79.3633 40.8351Z" fill="#3472E5"/>
<path d="M315.115 74.8392L243.762 3.52024L315.115 3.52024L315.115 74.8392ZM317.461 80.5001L317.461 1.17531L238.098 1.17531L317.461 80.5001Z" fill="#F5F5F5"/>
<path d="M156.384 78.1552L81.747 78.1552C82.3322 58.4743 90.2811 40.0515 104.269 26.0647C118.257 12.0778 136.689 4.1382 156.384 3.55334L156.384 78.1552ZM158.73 80.5001L158.73 1.17531C114.901 1.17531 79.3679 36.6913 79.3679 80.5001L158.73 80.5001Z" fill="#3472E5"/>
</g>
<defs>
<clipPath id="clip0_2978_1329">
<rect width="161" height="398" fill="white" transform="translate(398 1.73971e-05) rotate(90)"/>
</clipPath>
</defs>
</svg>
