<svg width="597" height="200" viewBox="0 0 597 200" fill="none" xmlns="http://www.w3.org/2000/svg">
<g clip-path="url(#clip0_2978_1397)">
<path d="M101.302 100V199.029H2.35352L101.302 100Z" stroke="#3472E5" stroke-width="2.83" stroke-miterlimit="10"/>
<path d="M2.35352 0.978027L2.35352 100H101.295V0.978027H2.35352Z" stroke="#3472E5" stroke-width="2.83" stroke-miterlimit="10"/>
<path d="M558.269 199.029H497.082V137.792C497.082 116.936 513.998 100.007 534.836 100.007L596.023 100.007V161.244C596.023 182.099 579.108 199.029 558.269 199.029Z" stroke="#3472E5" stroke-width="2.83" stroke-miterlimit="10"/>
<path d="M596.023 100L497.082 100L497.082 0.978023C551.69 0.978025 596.023 45.3475 596.023 100Z" stroke="#3472E5" stroke-width="2.83" stroke-miterlimit="10"/>
<path d="M299.191 100V0.978027H398.133L299.191 100Z" stroke="#3472E5" stroke-width="2.83" stroke-miterlimit="10"/>
<path d="M398.133 199.029V100.007H299.191V199.029H398.133Z" stroke="#3472E5" stroke-width="2.83" stroke-miterlimit="10"/>
<path d="M447.611 199.022C474.933 199.022 497.082 176.855 497.082 149.511C497.082 122.167 474.933 100 447.611 100C420.289 100 398.141 122.167 398.141 149.511C398.141 176.855 420.289 199.022 447.611 199.022Z" stroke="#3472E5" stroke-width="2.83" stroke-miterlimit="10"/>
<path d="M398.133 0.971224H497.074V99.9932C442.466 99.9932 398.133 55.6237 398.133 0.971224Z" stroke="#3472E5" stroke-width="2.83" stroke-miterlimit="10"/>
<path d="M299.191 100H200.25V199.022H299.191V100ZM227.172 186.005C219.815 186.005 213.801 180.302 213.298 173.07C213.264 172.739 213.25 172.409 213.25 172.078V126.951C213.25 126.62 213.264 126.29 213.298 125.959C213.801 118.734 219.808 113.024 227.172 113.024H272.262C279.612 113.024 285.634 118.727 286.136 125.959C286.171 126.29 286.185 126.62 286.185 126.951V172.078C286.185 172.409 286.171 172.739 286.136 173.07C285.634 180.295 279.612 186.005 272.262 186.005H227.172ZM233.263 176.148C227.895 176.148 223.504 171.982 223.139 166.706C223.112 166.465 223.105 166.224 223.105 165.983V133.046C223.105 132.805 223.112 132.564 223.139 132.323C223.504 127.047 227.895 122.88 233.263 122.88H266.172C271.533 122.88 275.931 127.047 276.295 132.323C276.323 132.564 276.33 132.805 276.33 133.046V165.983C276.33 166.224 276.323 166.465 276.295 166.706C275.931 171.982 271.533 176.148 266.172 176.148H233.263Z" stroke="#3472E5" stroke-width="2.83" stroke-miterlimit="10"/>
<path d="M200.244 0.978027H299.192L200.244 100V0.978027Z" stroke="#3472E5" stroke-width="2.83" stroke-miterlimit="10"/>
<path d="M162.49 199.029H101.303L101.303 137.792C101.303 116.936 118.218 100.007 139.057 100.007L200.244 100.007V161.244C200.244 182.099 183.328 199.029 162.49 199.029Z" stroke="#3472E5" stroke-width="2.83" stroke-miterlimit="10"/>
<path d="M101.303 0.978028H200.244V100C145.636 100 101.303 55.6306 101.303 0.978028Z" stroke="#3472E5" stroke-width="2.83" stroke-miterlimit="10"/>
</g>
<defs>
<clipPath id="clip0_2978_1397">
<rect width="597" height="200" fill="white"/>
</clipPath>
</defs>
</svg>
