<svg width="34" height="34" viewBox="0 0 34 34" fill="none" xmlns="http://www.w3.org/2000/svg">
<path d="M10.2 5.1H23.8C25.1526 5.1 26.4498 5.63732 27.4062 6.59376C28.3627 7.55019 28.9 8.8474 28.9 10.2V23.8C28.9 25.1526 28.3627 26.4498 27.4062 27.4062C26.4498 28.3627 25.1526 28.9 23.8 28.9H10.2C8.8474 28.9 7.55019 28.3627 6.59376 27.4062C5.63732 26.4498 5.1 25.1526 5.1 23.8V10.2C5.1 8.8474 5.63732 7.55019 6.59376 6.59376C7.55019 5.63732 8.8474 5.1 10.2 5.1ZM10.2 8.5C9.74913 8.5 9.31673 8.67911 8.99792 8.99792C8.67911 9.31673 8.5 9.74913 8.5 10.2V23.8C8.5 24.2509 8.67911 24.6833 8.99792 25.0021C9.31673 25.3209 9.74913 25.5 10.2 25.5H23.8C24.2509 25.5 24.6833 25.3209 25.0021 25.0021C25.3209 24.6833 25.5 24.2509 25.5 23.8V10.2C25.5 9.74913 25.3209 9.31673 25.0021 8.99792C24.6833 8.67911 24.2509 8.5 23.8 8.5H10.2ZM13.6 11.9H20.4C20.8509 11.9 21.2833 12.0791 21.6021 12.3979C21.9209 12.7167 22.1 13.1491 22.1 13.6V20.4C22.1 20.8509 21.9209 21.2833 21.6021 21.6021C21.2833 21.9209 20.8509 22.1 20.4 22.1H13.6C13.1491 22.1 12.7167 21.9209 12.3979 21.6021C12.0791 21.2833 11.9 20.8509 11.9 20.4V13.6C11.9 13.1491 12.0791 12.7167 12.3979 12.3979C12.7167 12.0791 13.1491 11.9 13.6 11.9ZM17 15.3C16.0611 15.3 15.3 16.0611 15.3 17C15.3 17.9389 16.0611 18.7 17 18.7C17.9389 18.7 18.7 17.9389 18.7 17C18.7 16.0611 17.9389 15.3 17 15.3ZM10.2 0C10.6509 0 11.0833 0.179107 11.4021 0.497919C11.7209 0.81673 11.9 1.24913 11.9 1.7V5.1C11.9 5.55087 11.7209 5.98327 11.4021 6.30208C11.0833 6.62089 10.6509 6.8 10.2 6.8C9.74913 6.8 9.31673 6.62089 8.99792 6.30208C8.67911 5.98327 8.5 5.55087 8.5 5.1V1.7C8.5 1.24913 8.67911 0.81673 8.99792 0.497919C9.31673 0.179107 9.74913 0 10.2 0ZM1.7 8.5H5.1C5.55087 8.5 5.98327 8.67911 6.30208 8.99792C6.62089 9.31673 6.8 9.74913 6.8 10.2C6.8 10.6509 6.62089 11.0833 6.30208 11.4021C5.98327 11.7209 5.55087 11.9 5.1 11.9H1.7C1.24913 11.9 0.81673 11.7209 0.497919 11.4021C0.179107 11.0833 0 10.6509 0 10.2C0 9.74913 0.179107 9.31673 0.497919 8.99792C0.81673 8.67911 1.24913 8.5 1.7 8.5ZM28.9 8.5H32.3C32.7509 8.5 33.1833 8.67911 33.5021 8.99792C33.8209 9.31673 34 9.74913 34 10.2C34 10.6509 33.8209 11.0833 33.5021 11.4021C33.1833 11.7209 32.7509 11.9 32.3 11.9H28.9C28.4491 11.9 28.0167 11.7209 27.6979 11.4021C27.3791 11.0833 27.2 10.6509 27.2 10.2C27.2 9.74913 27.3791 9.31673 27.6979 8.99792C28.0167 8.67911 28.4491 8.5 28.9 8.5ZM1.7 15.3H5.1C5.55087 15.3 5.98327 15.4791 6.30208 15.7979C6.62089 16.1167 6.8 16.5491 6.8 17C6.8 17.4509 6.62089 17.8833 6.30208 18.2021C5.98327 18.5209 5.55087 18.7 5.1 18.7H1.7C1.24913 18.7 0.81673 18.5209 0.497919 18.2021C0.179107 17.8833 0 17.4509 0 17C0 16.5491 0.179107 16.1167 0.497919 15.7979C0.81673 15.4791 1.24913 15.3 1.7 15.3ZM28.9 15.3H32.3C32.7509 15.3 33.1833 15.4791 33.5021 15.7979C33.8209 16.1167 34 16.5491 34 17C34 17.4509 33.8209 17.8833 33.5021 18.2021C33.1833 18.5209 32.7509 18.7 32.3 18.7H28.9C28.4491 18.7 28.0167 18.5209 27.6979 18.2021C27.3791 17.8833 27.2 17.4509 27.2 17C27.2 16.5491 27.3791 16.1167 27.6979 15.7979C28.0167 15.4791 28.4491 15.3 28.9 15.3ZM1.7 22.1H5.1C5.55087 22.1 5.98327 22.2791 6.30208 22.5979C6.62089 22.9167 6.8 23.3491 6.8 23.8C6.8 24.2509 6.62089 24.6833 6.30208 25.0021C5.98327 25.3209 5.55087 25.5 5.1 25.5H1.7C1.24913 25.5 0.81673 25.3209 0.497919 25.0021C0.179107 24.6833 0 24.2509 0 23.8C0 23.3491 0.179107 22.9167 0.497919 22.5979C0.81673 22.2791 1.24913 22.1 1.7 22.1ZM28.9 22.1H32.3C32.7509 22.1 33.1833 22.2791 33.5021 22.5979C33.8209 22.9167 34 23.3491 34 23.8C34 24.2509 33.8209 24.6833 33.5021 25.0021C33.1833 25.3209 32.7509 25.5 32.3 25.5H28.9C28.4491 25.5 28.0167 25.3209 27.6979 25.0021C27.3791 24.6833 27.2 24.2509 27.2 23.8C27.2 23.3491 27.3791 22.9167 27.6979 22.5979C28.0167 22.2791 28.4491 22.1 28.9 22.1ZM10.2 27.2C10.6509 27.2 11.0833 27.3791 11.4021 27.6979C11.7209 28.0167 11.9 28.4491 11.9 28.9V32.3C11.9 32.7509 11.7209 33.1833 11.4021 33.5021C11.0833 33.8209 10.6509 34 10.2 34C9.74913 34 9.31673 33.8209 8.99792 33.5021C8.67911 33.1833 8.5 32.7509 8.5 32.3V28.9C8.5 28.4491 8.67911 28.0167 8.99792 27.6979C9.31673 27.3791 9.74913 27.2 10.2 27.2ZM23.8 0C24.2509 0 24.6833 0.179107 25.0021 0.497919C25.3209 0.81673 25.5 1.24913 25.5 1.7V5.1C25.5 5.55087 25.3209 5.98327 25.0021 6.30208C24.6833 6.62089 24.2509 6.8 23.8 6.8C23.3491 6.8 22.9167 6.62089 22.5979 6.30208C22.2791 5.98327 22.1 5.55087 22.1 5.1V1.7C22.1 1.24913 22.2791 0.81673 22.5979 0.497919C22.9167 0.179107 23.3491 0 23.8 0ZM23.8 27.2C24.2509 27.2 24.6833 27.3791 25.0021 27.6979C25.3209 28.0167 25.5 28.4491 25.5 28.9V32.3C25.5 32.7509 25.3209 33.1833 25.0021 33.5021C24.6833 33.8209 24.2509 34 23.8 34C23.3491 34 22.9167 33.8209 22.5979 33.5021C22.2791 33.1833 22.1 32.7509 22.1 32.3V28.9C22.1 28.4491 22.2791 28.0167 22.5979 27.6979C22.9167 27.3791 23.3491 27.2 23.8 27.2ZM17 0C17.4509 0 17.8833 0.179107 18.2021 0.497919C18.5209 0.81673 18.7 1.24913 18.7 1.7V5.1C18.7 5.55087 18.5209 5.98327 18.2021 6.30208C17.8833 6.62089 17.4509 6.8 17 6.8C16.5491 6.8 16.1167 6.62089 15.7979 6.30208C15.4791 5.98327 15.3 5.55087 15.3 5.1V1.7C15.3 1.24913 15.4791 0.81673 15.7979 0.497919C16.1167 0.179107 16.5491 0 17 0ZM17 27.2C17.4509 27.2 17.8833 27.3791 18.2021 27.6979C18.5209 28.0167 18.7 28.4491 18.7 28.9V32.3C18.7 32.7509 18.5209 33.1833 18.2021 33.5021C17.8833 33.8209 17.4509 34 17 34C16.5491 34 16.1167 33.8209 15.7979 33.5021C15.4791 33.1833 15.3 32.7509 15.3 32.3V28.9C15.3 28.4491 15.4791 28.0167 15.7979 27.6979C16.1167 27.3791 16.5491 27.2 17 27.2Z" fill="#3472E5"/>
</svg>
