<svg width="762" height="218" viewBox="0 0 762 218" fill="none" xmlns="http://www.w3.org/2000/svg">
<path d="M214.325 116.786V214.785H116.535L214.325 116.786ZM217.54 109L108.773 218H217.54V109Z" fill="white"/>
<path d="M214.325 3.22216V105.778H111.989V3.22216H214.325ZM217.54 0H108.773V109H217.54V0Z" fill="white"/>
<path d="M54.387 107.385C25.2832 107.385 1.61133 83.6625 1.61133 54.4962C1.61133 25.33 25.2832 1.6073 54.387 1.6073C83.4908 1.6073 107.163 25.33 107.163 54.4962C107.163 83.6625 83.4908 107.385 54.387 107.385Z" fill="#3472E5"/>
<path d="M54.3871 3.22216C82.5981 3.22216 105.559 26.2246 105.559 54.5038C105.559 82.783 82.6057 105.785 54.3871 105.785C26.1684 105.785 3.21526 82.7754 3.21526 54.4962C3.21526 26.217 26.1684 3.22216 54.3871 3.22216ZM54.3871 0C24.3528 0 0 24.3974 0 54.4962C0 84.595 24.3528 109 54.3871 109C84.4214 109 108.774 84.595 108.774 54.4962C108.774 24.3974 84.4214 0 54.3871 0Z" fill="#3472E5"/>
<path d="M1.61133 216.393V110.622C59.4255 111.479 106.3 158.454 107.155 216.393H1.61133Z" fill="white"/>
<path d="M3.21526 112.275C30.2007 113.079 55.4613 123.996 74.6394 143.208C93.8175 162.427 104.704 187.734 105.506 214.785H3.21526V112.275ZM0 109V218H108.767C108.767 157.802 60.0686 109 0 109Z" fill="white"/>
<path d="M219.152 107.385V1.6073H324.704V107.385H219.152ZM247.144 12.7219C238.308 12.7219 230.901 19.6362 230.288 28.4612C230.251 28.7872 230.236 29.2042 230.236 29.6666V79.341C230.236 79.8034 230.258 80.2204 230.296 80.5995C230.901 89.3714 238.308 96.2857 247.144 96.2857H296.712C305.548 96.2857 312.955 89.3714 313.568 80.5464C313.605 80.2204 313.62 79.8034 313.62 79.341V29.6666C313.62 29.2042 313.598 28.7872 313.56 28.4081C312.955 19.6362 305.548 12.7219 296.712 12.7219H247.144ZM253.839 82.2068C248.846 82.2068 244.663 78.3023 244.315 73.3136C244.284 73.0483 244.284 72.836 244.284 72.6237V36.3687C244.284 36.1564 244.284 35.9442 244.315 35.7319C244.663 30.6901 248.846 26.7856 253.847 26.7856H290.024C295.017 26.7856 299.201 30.6901 299.549 35.6788C299.579 35.9442 299.579 36.1564 299.579 36.3687V72.6237C299.579 72.836 299.579 73.0483 299.549 73.2606C299.201 78.3023 295.017 82.2068 290.017 82.2068H253.839Z" fill="#AAAAAA"/>
<path d="M323.092 3.22216V105.778H220.756V3.22216H323.092ZM228.692 28.2944C228.654 28.7189 228.632 29.1662 228.632 29.6666V79.341C228.632 79.8413 228.654 80.2887 228.692 80.7132C229.388 90.357 237.483 97.9006 247.144 97.9006H296.712C306.373 97.9006 314.468 90.357 315.164 80.7132C315.202 80.2887 315.224 79.8413 315.224 79.341V29.6666C315.224 29.1662 315.202 28.7189 315.164 28.2944C314.468 18.6506 306.373 11.107 296.712 11.107H247.144C237.483 11.107 229.388 18.6506 228.692 28.2944ZM290.017 28.4081C294.17 28.4081 297.65 31.653 297.938 35.8001V35.8532L297.945 35.9062C297.96 36.0351 297.968 36.1868 297.968 36.3763V72.6313C297.968 72.8208 297.968 72.9725 297.945 73.1013V73.1544L297.938 73.2075C297.65 77.3546 294.17 80.5995 290.017 80.5995H253.839C249.686 80.5995 246.206 77.3546 245.919 73.2075V73.1544L245.911 73.1013C245.896 72.98 245.888 72.8284 245.888 72.6389V36.3839C245.888 36.1943 245.888 36.0427 245.911 35.9214V35.8683L245.919 35.8153C246.206 31.6681 249.686 28.4232 253.839 28.4232H290.017M326.308 0H217.541V109H326.308V0ZM247.144 94.6633C239.064 94.6633 232.445 88.3782 231.892 80.4251C231.855 80.0612 231.839 79.6973 231.839 79.3334V29.6666C231.839 29.3027 231.855 28.9388 231.892 28.5749C232.445 20.6218 239.064 14.3367 247.144 14.3367H296.712C304.799 14.3367 311.411 20.6218 311.964 28.5749C312.002 28.9388 312.017 29.3027 312.017 29.6666V79.341C312.017 79.7049 312.002 80.0688 311.964 80.4327C311.411 88.3857 304.807 94.6709 296.712 94.6709H247.144V94.6633ZM290.017 25.1783H253.839C247.946 25.1783 243.112 29.7652 242.711 35.5726C242.681 35.838 242.673 36.1034 242.673 36.3687V72.6237C242.673 72.8891 242.681 73.1544 242.711 73.4198C243.112 79.2272 247.946 83.8141 253.839 83.8141H290.017C295.918 83.8141 300.744 79.2272 301.145 73.4198C301.176 73.1544 301.183 72.8891 301.183 72.6237V36.3687C301.183 36.1034 301.176 35.838 301.145 35.5726C300.744 29.7652 295.918 25.1783 290.017 25.1783Z" fill="#B2B2B2"/>
<path d="M221.422 216.393L324.704 112.889V216.393H221.422Z" fill="#3472E5"/>
<path d="M323.092 116.786V214.785H225.303L323.092 116.786ZM326.308 109L217.541 218H326.308V109Z" fill="#3472E5"/>
<path d="M431.866 3.22216V67.4076C431.866 88.5677 414.692 105.778 393.578 105.778H329.53V41.5924C329.53 20.4323 346.703 3.22216 367.818 3.22216H431.866ZM435.081 0H367.818C344.895 0 326.314 18.6203 326.314 41.5924V109H393.578C416.501 109 435.081 90.3797 435.081 67.4076V0Z" fill="#3472E5"/>
<path d="M329.529 112.275C356.515 113.079 381.776 123.996 400.954 143.208C420.132 162.427 431.018 187.734 431.82 214.785H329.529V112.275ZM326.307 109V218H435.073C435.073 157.802 386.375 109 326.307 109Z" fill="white"/>
<path d="M649.407 116.786V214.785H551.617L649.407 116.786ZM652.622 109L543.855 218H652.622V109Z" fill="white"/>
<path d="M651.01 1.6073H545.459V107.385H651.01V1.6073Z" fill="#3472E5"/>
<path d="M649.407 3.22216V105.778H547.071V3.22216H649.407ZM652.622 0H543.855V109H652.622V0Z" fill="#3472E5"/>
<path d="M489.469 107.385C460.365 107.385 436.693 83.6625 436.693 54.4962C436.693 25.33 460.365 1.6073 489.469 1.6073C518.573 1.6073 542.245 25.33 542.245 54.4962C542.245 83.6625 518.573 107.385 489.469 107.385Z" fill="white"/>
<path d="M489.469 3.22216C517.68 3.22216 540.641 26.2246 540.641 54.5038C540.641 82.783 517.688 105.785 489.469 105.785C461.25 105.785 438.297 82.783 438.297 54.5038C438.297 26.2246 461.25 3.22216 489.469 3.22216ZM489.469 0C459.435 0 435.082 24.405 435.082 54.5038C435.082 84.6025 459.435 109.008 489.469 109.008C519.503 109.008 543.856 84.6025 543.856 54.5038C543.856 24.405 519.503 0 489.469 0Z" fill="white"/>
<path d="M438.297 112.275C465.283 113.079 490.543 123.996 509.721 143.208C528.9 162.427 539.786 187.734 540.588 214.785H438.297V112.275ZM435.082 109V218H543.849C543.849 157.802 495.151 109 435.082 109Z" fill="#3472E5"/>
<path d="M758.174 3.22216V105.778H655.838V3.22216H758.174ZM663.774 28.2944C663.736 28.7189 663.714 29.1662 663.714 29.6666V79.341C663.714 79.8413 663.736 80.2887 663.774 80.7132C664.47 90.357 672.565 97.9006 682.226 97.9006H731.794C741.455 97.9006 749.55 90.357 750.246 80.7132C750.284 80.2887 750.306 79.8413 750.306 79.341V29.6666C750.306 29.1662 750.284 28.7189 750.246 28.2944C749.55 18.6506 741.455 11.107 731.794 11.107H682.226C672.565 11.107 664.47 18.6506 663.774 28.2944ZM725.099 28.4081C729.252 28.4081 732.732 31.653 733.02 35.8001V35.8532L733.027 35.9062C733.042 36.0275 733.05 36.1868 733.05 36.3687V72.6237C733.05 72.8132 733.05 72.9649 733.027 73.0862V73.1393L733.02 73.1923C732.732 77.3394 729.252 80.5843 725.099 80.5843H688.921C684.768 80.5843 681.288 77.3394 681.001 73.1923V73.1393L680.993 73.0862C680.978 72.9649 680.97 72.8132 680.97 72.6237V36.3687C680.97 36.1792 680.97 36.0275 680.993 35.9062V35.8532L681.001 35.8001C681.288 31.653 684.768 28.4081 688.921 28.4081H725.099ZM761.39 0H652.623V109H761.39V0ZM682.226 94.6633C674.146 94.6633 667.527 88.3782 666.974 80.4251C666.937 80.0612 666.921 79.6973 666.921 79.3334V29.6666C666.921 29.3027 666.937 28.9388 666.974 28.5749C667.527 20.6218 674.146 14.3367 682.226 14.3367H731.794C739.881 14.3367 746.493 20.6218 747.046 28.5749C747.084 28.9388 747.099 29.3027 747.099 29.6666V79.341C747.099 79.7049 747.084 80.0688 747.046 80.4327C746.493 88.3857 739.889 94.6709 731.794 94.6709H682.226V94.6633ZM725.099 25.1783H688.921C683.028 25.1783 678.194 29.7652 677.793 35.5726C677.763 35.838 677.755 36.1034 677.755 36.3687V72.6237C677.755 72.8891 677.763 73.1544 677.793 73.4198C678.194 79.2272 683.028 83.8141 688.921 83.8141H725.099C731 83.8141 735.826 79.2272 736.227 73.4198C736.258 73.1544 736.265 72.8891 736.265 72.6237V36.3687C736.265 36.1034 736.258 35.838 736.227 35.5726C735.826 29.7652 731 25.1783 725.099 25.1783Z" fill="#3472E5"/>
<path d="M656.504 216.393L759.786 112.889V216.393H656.504Z" fill="#AAAAAA"/>
<path d="M758.174 116.786V214.785H660.385L758.174 116.786ZM761.39 109L652.623 218H761.39V109Z" fill="#B2B2B2"/>
</svg>
