<svg width="35" height="39" viewBox="0 0 35 39" fill="none" xmlns="http://www.w3.org/2000/svg">
<path d="M10.3872 6C9.44133 5.99973 8.51241 6.2541 7.69566 6.73706C6.87891 7.22001 6.2037 7.91417 5.73925 8.74837C5.2748 9.58258 5.03781 10.5268 5.05257 11.4843C5.06734 12.4418 5.33333 13.3781 5.82329 14.1972C4.60638 14.4353 3.50929 15.0948 2.72039 16.0626C1.93149 17.0304 1.5 18.2461 1.5 19.5009C1.5 20.7557 1.93149 21.9714 2.72039 22.9392C3.50929 23.907 4.60638 24.5665 5.82329 24.8046M10.3872 6C10.3872 4.80653 10.8555 3.66193 11.689 2.81802C12.5226 1.97411 13.6531 1.5 14.832 1.5C16.0108 1.5 17.1413 1.97411 17.9749 2.81802C18.8084 3.66193 19.2767 4.80653 19.2767 6V33C19.2767 34.1935 18.8084 35.3381 17.9749 36.182C17.1413 37.0259 16.0108 37.5 14.832 37.5C13.6531 37.5 12.5226 37.0259 11.689 36.182C10.8555 35.3381 10.3872 34.1935 10.3872 33C9.44159 33.0001 8.51299 32.7457 7.69649 32.2628C6.88 31.7799 6.20497 31.086 5.74057 30.2521C5.27617 29.4181 5.0391 28.4742 5.05363 27.517C5.06817 26.5598 5.33379 25.6237 5.82329 24.8046M10.3872 6C10.3872 7.4724 11.0859 8.7792 12.1651 9.6M5.82329 24.8046C6.46134 23.7352 7.44592 22.9228 8.60927 22.506M32.1666 6.45L28.1663 10.5H24.6105M32.1666 32.55L28.1663 28.5H24.6105M32.1666 19.5H24.6105M30.8331 6.45C30.8331 6.80804 30.9736 7.15142 31.2237 7.40459C31.4738 7.65777 31.8129 7.8 32.1666 7.8C32.5202 7.8 32.8594 7.65777 33.1094 7.40459C33.3595 7.15142 33.5 6.80804 33.5 6.45C33.5 6.09196 33.3595 5.74858 33.1094 5.49541C32.8594 5.24223 32.5202 5.1 32.1666 5.1C31.8129 5.1 31.4738 5.24223 31.2237 5.49541C30.9736 5.74858 30.8331 6.09196 30.8331 6.45ZM30.8331 32.55C30.8331 32.192 30.9736 31.8486 31.2237 31.5954C31.4738 31.3422 31.8129 31.2 32.1666 31.2C32.5202 31.2 32.8594 31.3422 33.1094 31.5954C33.3595 31.8486 33.5 32.192 33.5 32.55C33.5 32.908 33.3595 33.2514 33.1094 33.5046C32.8594 33.7578 32.5202 33.9 32.1666 33.9C31.8129 33.9 31.4738 33.7578 31.2237 33.5046C30.9736 33.2514 30.8331 32.908 30.8331 32.55ZM30.8331 19.5C30.8331 19.858 30.9736 20.2014 31.2237 20.4546C31.4738 20.7078 31.8129 20.85 32.1666 20.85C32.5202 20.85 32.8594 20.7078 33.1094 20.4546C33.3595 20.2014 33.5 19.858 33.5 19.5C33.5 19.142 33.3595 18.7986 33.1094 18.5454C32.8594 18.2922 32.5202 18.15 32.1666 18.15C31.8129 18.15 31.4738 18.2922 31.2237 18.5454C30.9736 18.7986 30.8331 19.142 30.8331 19.5Z" stroke="#3472E5" stroke-width="3" stroke-linecap="round" stroke-linejoin="round"/>
</svg>
