<svg width="186" height="46" viewBox="0 0 186 46" fill="none" xmlns="http://www.w3.org/2000/svg">
<path d="M68.0091 1.86163C67.7317 1.94177 67.4543 2.02808 67.1707 2.10822C67.1646 2.10822 67.1523 2.10822 67.1461 2.11438C62.6397 3.57538 44.4911 9.98037 28.5 23.1294C30.4973 29.5837 32.4885 33.8372 34.942 39.3422C36.44 37.7456 38.0182 36.1736 39.6703 34.6325C43.4492 31.1002 47.6227 27.7282 52.1414 24.5966C54.262 23.1232 56.4628 21.7054 58.7314 20.343C62.0479 18.358 65.3892 16.5765 68.7304 14.9983C70.7647 14.0367 72.7991 13.1551 74.8272 12.3476C72.423 7.71797 70.9682 4.95625 68.0091 1.85547V1.86163Z" fill="#3472E5"/>
<path d="M35.5638 -0.00018309C35.2987 0.116944 33.3507 0.967654 33.0856 1.08478C33.0794 1.08478 33.0733 1.09095 33.0609 1.09711C28.8135 3.15608 14.3451 8.34664 0 23.7211C2.54599 30.0151 4.88239 34.0775 7.77977 39.3482C9.09283 37.5359 16.4287 29.5712 20.5406 25.817C22.4701 24.054 24.4798 22.334 26.5634 20.6634C29.6087 18.2284 32.6972 15.9969 35.8042 13.9687C37.6967 12.7358 39.5954 11.5769 41.4941 10.4981C39.0899 5.19038 38.2639 3.71089 35.5638 -0.00634766V-0.00018309Z" fill="#3472E5"/>
<path d="M61.5417 21.6313C58.6135 23.382 55.8086 25.2376 53.127 27.1732C54.6989 31.174 56.4374 35.2365 58.3422 39.3421C61.0115 32.1049 64.1 25.7431 67.4659 20.4539C68.1933 19.3073 68.9392 18.2161 69.6913 17.1743C69.0255 17.5072 68.3536 17.8401 67.6878 18.1915C65.6288 19.2579 63.576 20.4046 61.5355 21.6251L61.5417 21.6313Z" fill="#3472E5"/>
<path d="M89.3803 18.851C88.0734 18.1729 86.0391 17.8276 83.2958 17.8276C80.5526 17.8276 78.2408 18.1174 76.5024 18.6845C74.7578 19.2517 73.2598 20.2257 72.0146 21.6065C70.7693 22.9812 69.5549 24.9724 68.3774 27.58C67.1691 30.2307 66.5897 32.3329 66.6267 33.8863C66.6698 35.4398 67.3479 36.5618 68.6672 37.246C68.9692 37.4063 69.3083 37.5419 69.6843 37.659C70.9542 38.0659 72.6495 38.2693 74.7701 38.2693C77.1189 38.2693 79.0916 38.0659 80.7005 37.659C81.0026 37.5912 81.2862 37.5111 81.5574 37.4125C83.2958 36.8453 84.7938 35.8775 86.0453 34.4905C87.3028 33.1096 88.5173 31.1123 89.7009 28.4862C90.9092 25.8231 91.4948 23.7271 91.4393 22.186C91.3838 20.6448 90.6996 19.5291 89.3865 18.851H89.3803ZM82.365 32.2774C81.767 32.3267 80.9779 32.3637 80.0039 32.3883C79.0237 32.413 78.0436 32.4253 77.0511 32.4253C76.0586 32.4253 75.0907 32.413 74.129 32.3883C73.1735 32.3637 72.4091 32.3267 71.8481 32.2774L75.6887 23.7826C76.0401 23.758 76.7736 23.7333 77.8648 23.7086C78.9559 23.684 79.9916 23.6716 80.9779 23.6716C81.9643 23.6716 83.0061 23.684 84.0787 23.7086C85.1576 23.7333 85.8603 23.758 86.187 23.7826L82.3526 32.2774H82.365Z" fill="#3472E5"/>
<path d="M102.412 18.4316L97.8868 26.4764C96.6045 28.7511 95.5319 30.4156 94.6812 31.4635C94.4839 31.704 94.2928 31.9382 94.0955 32.154C93.4544 32.8691 92.8318 33.4547 92.2215 33.9047H97.6032C98.158 33.4917 98.7622 32.9122 99.4156 32.154C99.6006 31.9444 99.7917 31.7224 99.9889 31.4759C100.877 30.3847 101.869 28.8436 102.973 26.8524L104.612 23.8565H110.358L106.628 32.154L106.061 33.4054H111.221L111.782 32.154L117.959 18.4316H102.412ZM90.9701 32.154L88.498 37.6528H112.762L115.234 32.154H90.9701Z" fill="#3472E5"/>
<path d="M125.467 32.9557L126.897 18.4319H121.435L121.355 18.6292L119.919 37.6592H125.276L127.07 32.9557H125.473H125.467ZM136.502 18.4319L125.64 32.9557L122.126 37.6592L119.974 40.5442C118.877 40.5196 117.767 40.4518 116.615 40.3223C115.48 40.1867 114.309 40.0141 113.132 39.786L110.709 45.6239C111.517 45.7471 112.41 45.8396 113.397 45.9074C114.371 45.9629 115.283 45.9999 116.122 45.9999C117.62 45.9999 118.871 45.8026 119.87 45.4266C120.874 45.0505 121.787 44.4526 122.625 43.645C123.457 42.8375 124.487 41.623 125.726 40.0079L127.538 37.6531L142.124 18.66L142.186 18.4258H136.496L136.502 18.4319Z" fill="#3472E5"/>
<path d="M148.148 18.4316L140.762 32.3142C139.628 32.2896 138.21 32.1108 136.484 31.7779L133.969 37.6528L133.809 38.0288C134.141 38.1028 134.659 38.1583 135.356 38.2014C136.053 38.2384 136.724 38.2631 137.359 38.2631C138.623 38.2631 139.764 38.0596 140.781 37.6528C141.348 37.4308 141.884 37.1473 142.377 36.8021C143.764 35.828 145.028 34.2561 146.181 32.0738L150.435 24.0845H157.493L151.396 37.6528H156.778L165.402 18.4316H148.148Z" fill="#3472E5"/>
<path d="M184.877 25.3914C184.248 24.1215 182.836 23.4804 180.654 23.4804H173.811L176.098 18.4316H170.71L162.086 37.6528H174.976C177.054 37.6528 178.848 37.1103 180.358 36.0438C181.874 34.965 183.144 33.2944 184.18 31.0197C185.283 28.5415 185.518 26.6737 184.883 25.3853L184.877 25.3914ZM178.077 32.456H169.761L171.487 28.6278H179.828L178.083 32.456H178.077Z" fill="#3472E5"/>
</svg>
