<svg width="30" height="30" viewBox="0 0 30 30" fill="none" xmlns="http://www.w3.org/2000/svg">
<path d="M10.03 12.065C10.11 15.965 12.06 18.305 15.48 18.305H15.68V16.075C16.935 16.2 17.885 17.12 18.265 18.305H20.04C19.8579 17.6316 19.5352 17.0045 19.0931 16.465C18.651 15.9255 18.0995 15.4858 17.475 15.175C18.0346 14.8342 18.5179 14.3817 18.8947 13.8457C19.2715 13.3098 19.5337 12.7019 19.665 12.06H18.055C17.705 13.3 16.665 14.425 15.68 14.53V12.065H14.065V16.385C13.065 16.135 11.805 14.925 11.75 12.065H10.03Z" fill="#F5F5F5"/>
<path fill-rule="evenodd" clip-rule="evenodd" d="M15 0C23.2843 0 30 6.71573 30 15C30 23.2843 23.2843 30 15 30C6.71573 30 0 23.2843 0 15C0 6.71573 6.71573 0 15 0ZM7.5 14.7C7.5 11.305 7.5 9.61 8.55 8.55C9.615 7.5 11.31 7.5 14.7 7.5H15.3C18.695 7.5 20.39 7.5 21.45 8.55C22.5 9.615 22.5 11.31 22.5 14.7V15.3C22.5 18.695 22.5 20.39 21.45 21.45C20.385 22.5 18.69 22.5 15.3 22.5H14.7C11.305 22.5 9.61 22.5 8.55 21.45C7.5 20.385 7.5 18.69 7.5 15.3V14.7Z" fill="#F5F5F5"/>
</svg>
