<svg width="100" height="100" viewBox="0 0 100 100" fill="none" xmlns="http://www.w3.org/2000/svg">
<rect width="100" height="100" rx="20" fill="#3472E5"/>
<g clip-path="url(#clip0_5012_4)">
<path d="M88.4384 27.318C88.0906 27.4207 87.7354 27.5234 87.3876 27.626C87.3802 27.626 87.3654 27.626 87.358 27.6334C81.6971 29.4525 58.8983 37.426 38.8152 53.7985C41.3237 61.838 43.8248 67.1341 46.9032 73.9927C48.7827 72.0048 50.7659 70.0463 52.8452 68.1244C57.5959 63.7305 62.835 59.5274 68.5107 55.625C71.1746 53.7912 73.9347 52.0233 76.7911 50.3289C80.9572 47.8569 85.1529 45.6416 89.3486 43.6757C91.9089 42.4801 94.4618 41.3798 97.0074 40.3748C93.9883 34.6093 92.1605 31.169 88.4458 27.3106L88.4384 27.318Z" fill="white"/>
<path d="M47.6802 24.9998C47.3472 25.1465 44.9052 26.2028 44.5722 26.3495C44.5648 26.3495 44.55 26.3569 44.5426 26.3642C39.1926 28.9242 21.026 35.394 3 54.5392C6.19673 62.3807 9.13446 67.4347 12.7752 73.9998C14.4253 71.7479 23.6455 61.8232 28.8032 57.1432C31.2303 54.9426 33.7537 52.8081 36.3732 50.7248C40.1989 47.688 44.0764 44.9153 47.9836 42.3919C50.3589 40.8588 52.7416 39.4138 55.1318 38.0714C52.1127 31.4623 51.0693 29.6211 47.6802 24.9925V24.9998Z" fill="white"/>
<path d="M80.306 51.9427C76.6283 54.1286 73.0986 56.4319 69.739 58.8452C71.7148 63.8259 73.8977 68.8873 76.2953 74C79.6548 64.9849 83.5323 57.0627 87.7576 50.4829C88.6752 49.0525 89.6076 47.6955 90.5548 46.3972C89.7186 46.8079 88.875 47.226 88.0388 47.6588C85.4563 48.9865 82.8737 50.4169 80.306 51.9353V51.9427Z" fill="white"/>
</g>
<defs>
<clipPath id="clip0_5012_4">
<rect width="94" height="49" fill="white" transform="translate(3 25)"/>
</clipPath>
</defs>
</svg>
